<?xml version="1.0" encoding="UTF-8" standalone="no"?>
<!DOCTYPE svg PUBLIC "-//W3C//DTD SVG 1.1//EN"
 "http://www.w3.org/Graphics/SVG/1.1/DTD/svg11.dtd">
<!-- Generated by graphviz version 2.43.0 (0)
 -->
<!-- Title: G Pages: 1 -->
<svg width="581pt" height="1043pt"
 viewBox="0.00 0.00 581.42 1043.00" xmlns="http://www.w3.org/2000/svg" xmlns:xlink="http://www.w3.org/1999/xlink">
<g id="graph0" class="graph" transform="scale(1 1) rotate(0) translate(4 1039)">
<title>G</title>
<polygon fill="white" stroke="transparent" points="-4,4 -4,-1039 577.42,-1039 577.42,4 -4,4"/>
<g id="clust1" class="cluster">
<title>cluster_0</title>
<polygon fill="none" stroke="black" points="270,-377 270,-1027 552,-1027 552,-377 270,-377"/>
<text text-anchor="middle" x="411" y="-1013.4" font-family="Sans-Serif" font-size="12.00">Dataset Preparation</text>
</g>
<g id="clust2" class="cluster">
<title>cluster_1</title>
<polygon fill="none" stroke="black" points="20,-233 20,-666 262,-666 262,-233 20,-233"/>
<text text-anchor="middle" x="141" y="-652.4" font-family="Sans-Serif" font-size="12.00">Fine&#45;Tuning</text>
</g>
<g id="clust3" class="cluster">
<title>cluster_2</title>
<polygon fill="none" stroke="black" points="51,-8 51,-225 497,-225 497,-8 51,-8"/>
<text text-anchor="middle" x="274" y="-211.4" font-family="Sans-Serif" font-size="12.00">Result Analysis</text>
</g>
<!-- CelebAHQ -->
<g id="node1" class="node">
<title>CelebAHQ</title>
<path fill="#f8cecc" stroke="#b85450" d="M484,-926C484,-926 426,-926 426,-926 420,-926 414,-920 414,-914 414,-914 414,-902 414,-902 414,-896 420,-890 426,-890 426,-890 484,-890 484,-890 490,-890 496,-896 496,-902 496,-902 496,-914 496,-914 496,-920 490,-926 484,-926"/>
<text text-anchor="middle" x="455" y="-904.9" font-family="Sans-Serif" font-size="12.00">CelebA&#45;HQ</text>
</g>
<!-- MergeCelebA -->
<g id="node4" class="node">
<title>MergeCelebA</title>
<ellipse fill="#f8cecc" stroke="#b85450" cx="413" cy="-836" rx="33.49" ry="18"/>
<text text-anchor="middle" x="413" y="-832.9" font-family="Sans-Serif" font-size="12.00">Merge</text>
</g>
<!-- CelebAHQ&#45;&gt;MergeCelebA -->
<g id="edge1" class="edge">
<title>CelebAHQ&#45;&gt;MergeCelebA</title>
<path fill="none" stroke="black" d="M444.62,-889.7C439.66,-881.44 433.64,-871.39 428.18,-862.3"/>
<polygon fill="black" stroke="black" points="431.12,-860.4 422.97,-853.62 425.12,-864 431.12,-860.4"/>
</g>
<!-- CelebA -->
<g id="node2" class="node">
<title>CelebA</title>
<path fill="#f8cecc" stroke="#b85450" d="M363.5,-998C363.5,-998 328.5,-998 328.5,-998 322.5,-998 316.5,-992 316.5,-986 316.5,-986 316.5,-974 316.5,-974 316.5,-968 322.5,-962 328.5,-962 328.5,-962 363.5,-962 363.5,-962 369.5,-962 375.5,-968 375.5,-974 375.5,-974 375.5,-986 375.5,-986 375.5,-992 369.5,-998 363.5,-998"/>
<text text-anchor="middle" x="346" y="-976.9" font-family="Sans-Serif" font-size="12.00">CelebA</text>
</g>
<!-- FilterCropCelebA -->
<g id="node3" class="node">
<title>FilterCropCelebA</title>
<ellipse fill="#f8cecc" stroke="#b85450" cx="346" cy="-908" rx="49.73" ry="18"/>
<text text-anchor="middle" x="346" y="-904.9" font-family="Sans-Serif" font-size="12.00">Filter, Crop</text>
</g>
<!-- CelebA&#45;&gt;FilterCropCelebA -->
<g id="edge2" class="edge">
<title>CelebA&#45;&gt;FilterCropCelebA</title>
<path fill="none" stroke="black" d="M346,-961.7C346,-953.98 346,-944.71 346,-936.11"/>
<polygon fill="black" stroke="black" points="349.5,-936.1 346,-926.1 342.5,-936.1 349.5,-936.1"/>
</g>
<!-- FilterCropCelebA&#45;&gt;MergeCelebA -->
<g id="edge3" class="edge">
<title>FilterCropCelebA&#45;&gt;MergeCelebA</title>
<path fill="none" stroke="black" d="M361.54,-890.76C370.41,-881.5 381.67,-869.73 391.39,-859.58"/>
<polygon fill="black" stroke="black" points="394.08,-861.83 398.46,-852.19 389.02,-856.99 394.08,-861.83"/>
</g>
<!-- Images -->
<g id="node5" class="node">
<title>Images</title>
<path fill="#f8cecc" stroke="#b85450" d="M470.5,-782C470.5,-782 433.5,-782 433.5,-782 427.5,-782 421.5,-776 421.5,-770 421.5,-770 421.5,-758 421.5,-758 421.5,-752 427.5,-746 433.5,-746 433.5,-746 470.5,-746 470.5,-746 476.5,-746 482.5,-752 482.5,-758 482.5,-758 482.5,-770 482.5,-770 482.5,-776 476.5,-782 470.5,-782"/>
<text text-anchor="middle" x="452" y="-760.9" font-family="Sans-Serif" font-size="12.00">Images</text>
</g>
<!-- MergeCelebA&#45;&gt;Images -->
<g id="edge4" class="edge">
<title>MergeCelebA&#45;&gt;Images</title>
<path fill="none" stroke="black" d="M422.24,-818.41C426.77,-810.28 432.33,-800.31 437.41,-791.18"/>
<polygon fill="black" stroke="black" points="440.47,-792.89 442.28,-782.45 434.36,-789.48 440.47,-792.89"/>
</g>
<!-- BinaryAttributes -->
<g id="node6" class="node">
<title>BinaryAttributes</title>
<path fill="#f8cecc" stroke="#b85450" d="M383.5,-710C383.5,-710 290.5,-710 290.5,-710 284.5,-710 278.5,-704 278.5,-698 278.5,-698 278.5,-686 278.5,-686 278.5,-680 284.5,-674 290.5,-674 290.5,-674 383.5,-674 383.5,-674 389.5,-674 395.5,-680 395.5,-686 395.5,-686 395.5,-698 395.5,-698 395.5,-704 389.5,-710 383.5,-710"/>
<text text-anchor="middle" x="337" y="-688.9" font-family="Sans-Serif" font-size="12.00">Binary Attributes</text>
</g>
<!-- MergeCelebA&#45;&gt;BinaryAttributes -->
<g id="edge5" class="edge">
<title>MergeCelebA&#45;&gt;BinaryAttributes</title>
<path fill="none" stroke="black" d="M404.13,-818.43C391.12,-794.11 366.7,-748.5 351.18,-719.49"/>
<polygon fill="black" stroke="black" points="354.09,-717.51 346.28,-710.35 347.92,-720.81 354.09,-717.51"/>
</g>
<!-- BLIP2Captions -->
<g id="node7" class="node">
<title>BLIP2Captions</title>
<path fill="#f8cecc" stroke="#b85450" d="M532,-710C532,-710 446,-710 446,-710 440,-710 434,-704 434,-698 434,-698 434,-686 434,-686 434,-680 440,-674 446,-674 446,-674 532,-674 532,-674 538,-674 544,-680 544,-686 544,-686 544,-698 544,-698 544,-704 538,-710 532,-710"/>
<text text-anchor="middle" x="489" y="-688.9" font-family="Sans-Serif" font-size="12.00">BLIP&#45;2 Captions</text>
</g>
<!-- Images&#45;&gt;BLIP2Captions -->
<g id="edge6" class="edge">
<title>Images&#45;&gt;BLIP2Captions</title>
<path fill="none" stroke="black" d="M461.15,-745.7C465.4,-737.64 470.56,-727.89 475.27,-718.98"/>
<polygon fill="black" stroke="black" points="478.38,-720.58 479.96,-710.1 472.19,-717.31 478.38,-720.58"/>
</g>
<!-- Dataset -->
<g id="node10" class="node">
<title>Dataset</title>
<path fill="#f8cecc" stroke="#b85450" d="M407.5,-493C407.5,-493 368.5,-493 368.5,-493 362.5,-493 356.5,-487 356.5,-481 356.5,-481 356.5,-469 356.5,-469 356.5,-463 362.5,-457 368.5,-457 368.5,-457 407.5,-457 407.5,-457 413.5,-457 419.5,-463 419.5,-469 419.5,-469 419.5,-481 419.5,-481 419.5,-487 413.5,-493 407.5,-493"/>
<text text-anchor="middle" x="388" y="-471.9" font-family="Sans-Serif" font-size="12.00">Dataset</text>
</g>
<!-- Images&#45;&gt;Dataset -->
<g id="edge11" class="edge">
<title>Images&#45;&gt;Dataset</title>
<path fill="none" stroke="black" d="M443.12,-745.76C430.22,-720.75 407.53,-677.06 405,-674 401.37,-669.61 397.56,-671.08 395,-666 368.47,-613.32 375.57,-541.6 382.27,-503.1"/>
<polygon fill="black" stroke="black" points="385.73,-503.63 384.13,-493.16 378.85,-502.35 385.73,-503.63"/>
</g>
<!-- CompareImages -->
<g id="node19" class="node">
<title>CompareImages</title>
<ellipse fill="#dae8fc" stroke="#6c8ebf" cx="445" cy="-106" rx="43.91" ry="18"/>
<text text-anchor="middle" x="445" y="-102.9" font-family="Sans-Serif" font-size="12.00">Compare</text>
</g>
<!-- Images&#45;&gt;CompareImages -->
<g id="edge25" class="edge">
<title>Images&#45;&gt;CompareImages</title>
<path fill="none" stroke="black" d="M482.73,-754.66C505.57,-746.86 535.67,-732.9 553,-710 577.67,-677.4 572,-660.88 572,-620 572,-620 572,-620 572,-258 572,-199.65 515.77,-152.09 478.14,-126.8"/>
<polygon fill="black" stroke="black" points="479.77,-123.69 469.49,-121.16 475.95,-129.55 479.77,-123.69"/>
</g>
<!-- Llama3Captions -->
<g id="node8" class="node">
<title>Llama3Captions</title>
<path fill="#f8cecc" stroke="#b85450" d="M512,-637C512,-637 416,-637 416,-637 410,-637 404,-631 404,-625 404,-625 404,-613 404,-613 404,-607 410,-601 416,-601 416,-601 512,-601 512,-601 518,-601 524,-607 524,-613 524,-613 524,-625 524,-625 524,-631 518,-637 512,-637"/>
<text text-anchor="middle" x="464" y="-615.9" font-family="Sans-Serif" font-size="12.00">Llama 3 Captions</text>
</g>
<!-- BinaryAttributes&#45;&gt;Llama3Captions -->
<g id="edge7" class="edge">
<title>BinaryAttributes&#45;&gt;Llama3Captions</title>
<path fill="none" stroke="black" d="M367.42,-673.99C384.57,-664.4 406.19,-652.32 424.63,-642.01"/>
<polygon fill="black" stroke="black" points="426.37,-645.05 433.39,-637.11 422.95,-638.94 426.37,-645.05"/>
</g>
<!-- WeightedSampling -->
<g id="node11" class="node">
<title>WeightedSampling</title>
<path fill="#f8cecc" stroke="#b85450" d="M398,-421C398,-421 290,-421 290,-421 284,-421 278,-415 278,-409 278,-409 278,-397 278,-397 278,-391 284,-385 290,-385 290,-385 398,-385 398,-385 404,-385 410,-391 410,-397 410,-397 410,-409 410,-409 410,-415 404,-421 398,-421"/>
<text text-anchor="middle" x="344" y="-399.9" font-family="Sans-Serif" font-size="12.00">Weighted Sampling</text>
</g>
<!-- BinaryAttributes&#45;&gt;WeightedSampling -->
<g id="edge13" class="edge">
<title>BinaryAttributes&#45;&gt;WeightedSampling</title>
<path fill="none" stroke="black" d="M337.42,-673.91C338.59,-625.95 341.91,-489.84 343.33,-431.31"/>
<polygon fill="black" stroke="black" points="346.84,-431.09 343.59,-421 339.84,-430.92 346.84,-431.09"/>
</g>
<!-- BLIP2Captions&#45;&gt;Llama3Captions -->
<g id="edge8" class="edge">
<title>BLIP2Captions&#45;&gt;Llama3Captions</title>
<path fill="none" stroke="black" d="M482.95,-673.81C480.06,-665.62 476.54,-655.62 473.33,-646.48"/>
<polygon fill="black" stroke="black" points="476.62,-645.3 470,-637.03 470.02,-647.62 476.62,-645.3"/>
</g>
<!-- Prompts -->
<g id="node9" class="node">
<title>Prompts</title>
<path fill="#f8cecc" stroke="#b85450" d="M476.5,-565C476.5,-565 435.5,-565 435.5,-565 429.5,-565 423.5,-559 423.5,-553 423.5,-553 423.5,-541 423.5,-541 423.5,-535 429.5,-529 435.5,-529 435.5,-529 476.5,-529 476.5,-529 482.5,-529 488.5,-535 488.5,-541 488.5,-541 488.5,-553 488.5,-553 488.5,-559 482.5,-565 476.5,-565"/>
<text text-anchor="middle" x="456" y="-543.9" font-family="Sans-Serif" font-size="12.00">Prompts</text>
</g>
<!-- BLIP2Captions&#45;&gt;Prompts -->
<g id="edge9" class="edge">
<title>BLIP2Captions&#45;&gt;Prompts</title>
<path fill="none" stroke="black" d="M526.73,-673.77C529.17,-671.47 531.32,-668.89 533,-666 547.53,-641.03 546.44,-626.57 533,-601 525.32,-586.39 511.59,-575.02 497.82,-566.63"/>
<polygon fill="black" stroke="black" points="499.26,-563.42 488.84,-561.53 495.81,-569.51 499.26,-563.42"/>
</g>
<!-- Llama3Captions&#45;&gt;Prompts -->
<g id="edge10" class="edge">
<title>Llama3Captions&#45;&gt;Prompts</title>
<path fill="none" stroke="black" d="M462.02,-600.7C461.14,-592.98 460.08,-583.71 459.1,-575.11"/>
<polygon fill="black" stroke="black" points="462.57,-574.64 457.95,-565.1 455.61,-575.44 462.57,-574.64"/>
</g>
<!-- Prompts&#45;&gt;Dataset -->
<g id="edge12" class="edge">
<title>Prompts&#45;&gt;Dataset</title>
<path fill="none" stroke="black" d="M439.19,-528.7C430.87,-520.14 420.69,-509.66 411.61,-500.3"/>
<polygon fill="black" stroke="black" points="414.09,-497.84 404.62,-493.1 409.07,-502.72 414.09,-497.84"/>
</g>
<!-- ImageGeneration -->
<g id="node18" class="node">
<title>ImageGeneration</title>
<path fill="#dae8fc" stroke="#6c8ebf" d="M324.5,-196C324.5,-196 223.5,-196 223.5,-196 217.5,-196 211.5,-190 211.5,-184 211.5,-184 211.5,-172 211.5,-172 211.5,-166 217.5,-160 223.5,-160 223.5,-160 324.5,-160 324.5,-160 330.5,-160 336.5,-166 336.5,-172 336.5,-172 336.5,-184 336.5,-184 336.5,-190 330.5,-196 324.5,-196"/>
<text text-anchor="middle" x="274" y="-174.9" font-family="Sans-Serif" font-size="12.00">Image Generation</text>
</g>
<!-- Prompts&#45;&gt;ImageGeneration -->
<g id="edge24" class="edge">
<title>Prompts&#45;&gt;ImageGeneration</title>
<path fill="none" stroke="black" d="M455.21,-528.96C454.04,-502.3 452,-449.13 452,-404 452,-404 452,-404 452,-330 452,-265.91 384.06,-223.38 332.13,-200.23"/>
<polygon fill="black" stroke="black" points="333.21,-196.88 322.64,-196.13 330.43,-203.3 333.21,-196.88"/>
</g>
<!-- Dataset&#45;&gt;WeightedSampling -->
<g id="edge14" class="edge">
<title>Dataset&#45;&gt;WeightedSampling</title>
<path fill="none" stroke="black" d="M377.12,-456.7C372.01,-448.56 365.8,-438.69 360.16,-429.7"/>
<polygon fill="black" stroke="black" points="363.04,-427.71 354.75,-421.1 357.11,-431.43 363.04,-427.71"/>
</g>
<!-- FineTune -->
<g id="node16" class="node">
<title>FineTune</title>
<ellipse fill="#d5e8d4" stroke="#82b366" cx="194" cy="-331" rx="43.91" ry="18"/>
<text text-anchor="middle" x="194" y="-327.9" font-family="Sans-Serif" font-size="12.00">Fine&#45;Tune</text>
</g>
<!-- WeightedSampling&#45;&gt;FineTune -->
<g id="edge19" class="edge">
<title>WeightedSampling&#45;&gt;FineTune</title>
<path fill="none" stroke="black" d="M307.31,-384.88C284.13,-374.06 254.29,-360.13 231.05,-349.29"/>
<polygon fill="black" stroke="black" points="232.39,-346.05 221.85,-345 229.43,-352.4 232.39,-346.05"/>
</g>
<!-- PretrainedModel -->
<g id="node12" class="node">
<title>PretrainedModel</title>
<path fill="#d5e8d4" stroke="#82b366" d="M178,-637C178,-637 84,-637 84,-637 78,-637 72,-631 72,-625 72,-625 72,-613 72,-613 72,-607 78,-601 84,-601 84,-601 178,-601 178,-601 184,-601 190,-607 190,-613 190,-613 190,-625 190,-625 190,-631 184,-637 178,-637"/>
<text text-anchor="middle" x="131" y="-615.9" font-family="Sans-Serif" font-size="12.00">Pretrained Model</text>
</g>
<!-- MeanAblationExperiments -->
<g id="node13" class="node">
<title>MeanAblationExperiments</title>
<path fill="#d5e8d4" stroke="#82b366" d="M209.5,-565C209.5,-565 52.5,-565 52.5,-565 46.5,-565 40.5,-559 40.5,-553 40.5,-553 40.5,-541 40.5,-541 40.5,-535 46.5,-529 52.5,-529 52.5,-529 209.5,-529 209.5,-529 215.5,-529 221.5,-535 221.5,-541 221.5,-541 221.5,-553 221.5,-553 221.5,-559 215.5,-565 209.5,-565"/>
<text text-anchor="middle" x="131" y="-543.9" font-family="Sans-Serif" font-size="12.00">Mean Ablation Experiments</text>
</g>
<!-- PretrainedModel&#45;&gt;MeanAblationExperiments -->
<g id="edge15" class="edge">
<title>PretrainedModel&#45;&gt;MeanAblationExperiments</title>
<path fill="none" stroke="black" d="M131,-600.7C131,-592.98 131,-583.71 131,-575.11"/>
<polygon fill="black" stroke="black" points="134.5,-575.1 131,-565.1 127.5,-575.1 134.5,-575.1"/>
</g>
<!-- StableDiffusion3LoRA -->
<g id="node15" class="node">
<title>StableDiffusion3LoRA</title>
<path fill="#d5e8d4" stroke="#82b366" d="M242,-421C242,-421 98,-421 98,-421 92,-421 86,-415 86,-409 86,-409 86,-397 86,-397 86,-391 92,-385 98,-385 98,-385 242,-385 242,-385 248,-385 254,-391 254,-397 254,-397 254,-409 254,-409 254,-415 248,-421 242,-421"/>
<text text-anchor="middle" x="170" y="-399.9" font-family="Sans-Serif" font-size="12.00">Stable Diffusion 3 + LoRA</text>
</g>
<!-- PretrainedModel&#45;&gt;StableDiffusion3LoRA -->
<g id="edge17" class="edge">
<title>PretrainedModel&#45;&gt;StableDiffusion3LoRA</title>
<path fill="none" stroke="black" d="M183.83,-600.95C201.39,-592.75 219.4,-581.1 231,-565 259.23,-525.81 264.93,-500.03 243,-457 236.77,-444.77 226.24,-434.7 215.1,-426.75"/>
<polygon fill="black" stroke="black" points="216.79,-423.67 206.51,-421.08 212.93,-429.51 216.79,-423.67"/>
</g>
<!-- PretrainedModel&#45;&gt;ImageGeneration -->
<g id="edge22" class="edge">
<title>PretrainedModel&#45;&gt;ImageGeneration</title>
<path fill="none" stroke="black" d="M83.03,-600.96C64.98,-592.53 45.57,-580.72 32,-565 4.53,-533.18 0,-518.03 0,-476 0,-476 0,-476 0,-330 0,-237.94 120.12,-201.59 201.29,-187.54"/>
<polygon fill="black" stroke="black" points="202.19,-190.94 211.48,-185.85 201.05,-184.03 202.19,-190.94"/>
</g>
<!-- TransformerBlocksToFineTune -->
<g id="node14" class="node">
<title>TransformerBlocksToFineTune</title>
<path fill="#d5e8d4" stroke="#82b366" d="M222,-493C222,-493 40,-493 40,-493 34,-493 28,-487 28,-481 28,-481 28,-469 28,-469 28,-463 34,-457 40,-457 40,-457 222,-457 222,-457 228,-457 234,-463 234,-469 234,-469 234,-481 234,-481 234,-487 228,-493 222,-493"/>
<text text-anchor="middle" x="131" y="-471.9" font-family="Sans-Serif" font-size="12.00">Transformer Blocks to Fine&#45;Tune</text>
</g>
<!-- MeanAblationExperiments&#45;&gt;TransformerBlocksToFineTune -->
<g id="edge16" class="edge">
<title>MeanAblationExperiments&#45;&gt;TransformerBlocksToFineTune</title>
<path fill="none" stroke="black" d="M131,-528.7C131,-520.98 131,-511.71 131,-503.11"/>
<polygon fill="black" stroke="black" points="134.5,-503.1 131,-493.1 127.5,-503.1 134.5,-503.1"/>
</g>
<!-- TransformerBlocksToFineTune&#45;&gt;StableDiffusion3LoRA -->
<g id="edge18" class="edge">
<title>TransformerBlocksToFineTune&#45;&gt;StableDiffusion3LoRA</title>
<path fill="none" stroke="black" d="M140.64,-456.7C145.13,-448.64 150.56,-438.89 155.52,-429.98"/>
<polygon fill="black" stroke="black" points="158.66,-431.54 160.47,-421.1 152.55,-428.14 158.66,-431.54"/>
</g>
<!-- StableDiffusion3LoRA&#45;&gt;FineTune -->
<g id="edge20" class="edge">
<title>StableDiffusion3LoRA&#45;&gt;FineTune</title>
<path fill="none" stroke="black" d="M175.93,-384.7C178.61,-376.9 181.83,-367.51 184.8,-358.83"/>
<polygon fill="black" stroke="black" points="188.2,-359.7 188.14,-349.1 181.58,-357.43 188.2,-359.7"/>
</g>
<!-- FineTunedModel -->
<g id="node17" class="node">
<title>FineTunedModel</title>
<path fill="#d5e8d4" stroke="#82b366" d="M241.5,-277C241.5,-277 146.5,-277 146.5,-277 140.5,-277 134.5,-271 134.5,-265 134.5,-265 134.5,-253 134.5,-253 134.5,-247 140.5,-241 146.5,-241 146.5,-241 241.5,-241 241.5,-241 247.5,-241 253.5,-247 253.5,-253 253.5,-253 253.5,-265 253.5,-265 253.5,-271 247.5,-277 241.5,-277"/>
<text text-anchor="middle" x="194" y="-255.9" font-family="Sans-Serif" font-size="12.00">Fine&#45;tuned Model</text>
</g>
<!-- FineTune&#45;&gt;FineTunedModel -->
<g id="edge21" class="edge">
<title>FineTune&#45;&gt;FineTunedModel</title>
<path fill="none" stroke="black" d="M194,-312.7C194,-304.98 194,-295.71 194,-287.11"/>
<polygon fill="black" stroke="black" points="197.5,-287.1 194,-277.1 190.5,-287.1 197.5,-287.1"/>
</g>
<!-- FineTunedModel&#45;&gt;ImageGeneration -->
<g id="edge23" class="edge">
<title>FineTunedModel&#45;&gt;ImageGeneration</title>
<path fill="none" stroke="black" d="M211.36,-240.86C222.47,-229.88 237.06,-215.48 249.36,-203.33"/>
<polygon fill="black" stroke="black" points="252.02,-205.63 256.68,-196.11 247.1,-200.64 252.02,-205.63"/>
</g>
<!-- ImageGeneration&#45;&gt;CompareImages -->
<g id="edge26" class="edge">
<title>ImageGeneration&#45;&gt;CompareImages</title>
<path fill="none" stroke="black" d="M315.83,-159.88C343.22,-148.67 378.78,-134.11 405.65,-123.11"/>
<polygon fill="black" stroke="black" points="407.2,-126.26 415.13,-119.23 404.55,-119.78 407.2,-126.26"/>
</g>
<!-- FeaturesCosineSimilarities -->
<g id="node21" class="node">
<title>FeaturesCosineSimilarities</title>
<path fill="#dae8fc" stroke="#6c8ebf" d="M230.5,-124C230.5,-124 71.5,-124 71.5,-124 65.5,-124 59.5,-118 59.5,-112 59.5,-112 59.5,-100 59.5,-100 59.5,-94 65.5,-88 71.5,-88 71.5,-88 230.5,-88 230.5,-88 236.5,-88 242.5,-94 242.5,-100 242.5,-100 242.5,-112 242.5,-112 242.5,-118 236.5,-124 230.5,-124"/>
<text text-anchor="middle" x="151" y="-102.9" font-family="Sans-Serif" font-size="12.00">Features&#39; Cosine Similarities</text>
</g>
<!-- ImageGeneration&#45;&gt;FeaturesCosineSimilarities -->
<g id="edge28" class="edge">
<title>ImageGeneration&#45;&gt;FeaturesCosineSimilarities</title>
<path fill="none" stroke="black" d="M243.91,-159.88C227.68,-150.64 207.46,-139.13 190.03,-129.21"/>
<polygon fill="black" stroke="black" points="191.63,-126.09 181.2,-124.19 188.16,-132.18 191.63,-126.09"/>
</g>
<!-- AttentionWeights -->
<g id="node23" class="node">
<title>AttentionWeights</title>
<path fill="#dae8fc" stroke="#6c8ebf" d="M371,-124C371,-124 273,-124 273,-124 267,-124 261,-118 261,-112 261,-112 261,-100 261,-100 261,-94 267,-88 273,-88 273,-88 371,-88 371,-88 377,-88 383,-94 383,-100 383,-100 383,-112 383,-112 383,-118 377,-124 371,-124"/>
<text text-anchor="middle" x="322" y="-102.9" font-family="Sans-Serif" font-size="12.00">Attention Weights</text>
</g>
<!-- ImageGeneration&#45;&gt;AttentionWeights -->
<g id="edge30" class="edge">
<title>ImageGeneration&#45;&gt;AttentionWeights</title>
<path fill="none" stroke="black" d="M285.87,-159.7C291.5,-151.47 298.35,-141.48 304.57,-132.42"/>
<polygon fill="black" stroke="black" points="307.5,-134.33 310.27,-124.1 301.73,-130.37 307.5,-134.33"/>
</g>
<!-- FIDScores -->
<g id="node20" class="node">
<title>FIDScores</title>
<path fill="#dae8fc" stroke="#6c8ebf" d="M475,-52C475,-52 419,-52 419,-52 413,-52 407,-46 407,-40 407,-40 407,-28 407,-28 407,-22 413,-16 419,-16 419,-16 475,-16 475,-16 481,-16 487,-22 487,-28 487,-28 487,-40 487,-40 487,-46 481,-52 475,-52"/>
<text text-anchor="middle" x="447" y="-30.9" font-family="Sans-Serif" font-size="12.00">FID Scores</text>
</g>
<!-- CompareImages&#45;&gt;FIDScores -->
<g id="edge27" class="edge">
<title>CompareImages&#45;&gt;FIDScores</title>
<path fill="none" stroke="black" d="M445.49,-87.7C445.71,-79.98 445.98,-70.71 446.23,-62.11"/>
<polygon fill="black" stroke="black" points="449.72,-62.2 446.51,-52.1 442.73,-62 449.72,-62.2"/>
</g>
<!-- FeaturesCosineSimilaritiesNCUT -->
<g id="node22" class="node">
<title>FeaturesCosineSimilaritiesNCUT</title>
<path fill="#dae8fc" stroke="#6c8ebf" d="M149,-52C149,-52 119,-52 119,-52 113,-52 107,-46 107,-40 107,-40 107,-28 107,-28 107,-22 113,-16 119,-16 119,-16 149,-16 149,-16 155,-16 161,-22 161,-28 161,-28 161,-40 161,-40 161,-46 155,-52 149,-52"/>
<text text-anchor="middle" x="134" y="-30.9" font-family="Sans-Serif" font-size="12.00">NCUT</text>
</g>
<!-- FeaturesCosineSimilarities&#45;&gt;FeaturesCosineSimilaritiesNCUT -->
<g id="edge29" class="edge">
<title>FeaturesCosineSimilarities&#45;&gt;FeaturesCosineSimilaritiesNCUT</title>
<path fill="none" stroke="black" d="M146.8,-87.7C144.9,-79.9 142.62,-70.51 140.52,-61.83"/>
<polygon fill="black" stroke="black" points="143.92,-61 138.15,-52.1 137.11,-62.65 143.92,-61"/>
</g>
<!-- AttentionWeightsHeatmap -->
<g id="node24" class="node">
<title>AttentionWeightsHeatmap</title>
<path fill="#dae8fc" stroke="#6c8ebf" d="M377,-52C377,-52 329,-52 329,-52 323,-52 317,-46 317,-40 317,-40 317,-28 317,-28 317,-22 323,-16 329,-16 329,-16 377,-16 377,-16 383,-16 389,-22 389,-28 389,-28 389,-40 389,-40 389,-46 383,-52 377,-52"/>
<text text-anchor="middle" x="353" y="-30.9" font-family="Sans-Serif" font-size="12.00">Heatmap</text>
</g>
<!-- AttentionWeights&#45;&gt;AttentionWeightsHeatmap -->
<g id="edge31" class="edge">
<title>AttentionWeights&#45;&gt;AttentionWeightsHeatmap</title>
<path fill="none" stroke="black" d="M329.66,-87.7C333.19,-79.73 337.46,-70.1 341.37,-61.26"/>
<polygon fill="black" stroke="black" points="344.58,-62.67 345.43,-52.1 338.18,-59.83 344.58,-62.67"/>
</g>
<!-- AttentionWeightsNCUTUndirected -->
<g id="node25" class="node">
<title>AttentionWeightsNCUTUndirected</title>
<path fill="#dae8fc" stroke="#6c8ebf" d="M286.5,-52C286.5,-52 191.5,-52 191.5,-52 185.5,-52 179.5,-46 179.5,-40 179.5,-40 179.5,-28 179.5,-28 179.5,-22 185.5,-16 191.5,-16 191.5,-16 286.5,-16 286.5,-16 292.5,-16 298.5,-22 298.5,-28 298.5,-28 298.5,-40 298.5,-40 298.5,-46 292.5,-52 286.5,-52"/>
<text text-anchor="middle" x="239" y="-30.9" font-family="Sans-Serif" font-size="12.00">NCUT Undirected</text>
</g>
<!-- AttentionWeights&#45;&gt;AttentionWeightsNCUTUndirected -->
<g id="edge32" class="edge">
<title>AttentionWeights&#45;&gt;AttentionWeightsNCUTUndirected</title>
<path fill="none" stroke="black" d="M301.48,-87.7C291.13,-78.97 278.41,-68.24 267.16,-58.75"/>
<polygon fill="black" stroke="black" points="269.18,-55.88 259.28,-52.1 264.67,-61.23 269.18,-55.88"/>
</g>
</g>
</svg>
