<?xml version="1.0" encoding="UTF-8" standalone="no"?>
<!DOCTYPE svg PUBLIC "-//W3C//DTD SVG 1.1//EN"
 "http://www.w3.org/Graphics/SVG/1.1/DTD/svg11.dtd">
<!-- Generated by graphviz version 2.43.0 (0)
 -->
<!-- Title: G Pages: 1 -->
<svg width="465pt" height="1038pt"
 viewBox="0.00 0.00 465.06 1038.00" xmlns="http://www.w3.org/2000/svg" xmlns:xlink="http://www.w3.org/1999/xlink">
<g id="graph0" class="graph" transform="scale(1 1) rotate(0) translate(4 1034)">
<title>G</title>
<polygon fill="white" stroke="transparent" points="-4,4 -4,-1034 461.06,-1034 461.06,4 -4,4"/>
<g id="clust1" class="cluster">
<title>cluster_0</title>
<polygon fill="none" stroke="black" points="220,-375 220,-1022 436,-1022 436,-375 220,-375"/>
<text text-anchor="middle" x="328" y="-1010" font-family="Sans-Serif" font-size="10.00">Dataset Preparation</text>
</g>
<g id="clust2" class="cluster">
<title>cluster_1</title>
<polygon fill="none" stroke="black" points="20,-231 20,-662 212,-662 212,-231 20,-231"/>
<text text-anchor="middle" x="116" y="-650" font-family="Sans-Serif" font-size="10.00">Fine&#45;Tuning</text>
</g>
<g id="clust3" class="cluster">
<title>cluster_2</title>
<polygon fill="none" stroke="black" points="56,-8 56,-223 390,-223 390,-8 56,-8"/>
<text text-anchor="middle" x="223" y="-211" font-family="Sans-Serif" font-size="10.00">Result Analysis</text>
</g>
<!-- CelebAHQ -->
<g id="node1" class="node">
<title>CelebAHQ</title>
<path fill="#f8cecc" stroke="#b85450" d="M358,-923C358,-923 328,-923 328,-923 322,-923 316,-917 316,-911 316,-911 316,-899 316,-899 316,-893 322,-887 328,-887 328,-887 358,-887 358,-887 364,-887 370,-893 370,-899 370,-899 370,-911 370,-911 370,-917 364,-923 358,-923"/>
<text text-anchor="middle" x="343" y="-902.5" font-family="Sans-Serif" font-size="10.00">CelebA&#45;HQ</text>
</g>
<!-- MergeCelebA -->
<g id="node4" class="node">
<title>MergeCelebA</title>
<ellipse fill="#f8cecc" stroke="#b85450" cx="322" cy="-833" rx="27" ry="18"/>
<text text-anchor="middle" x="322" y="-830.5" font-family="Sans-Serif" font-size="10.00">Merge</text>
</g>
<!-- CelebAHQ&#45;&gt;MergeCelebA -->
<g id="edge1" class="edge">
<title>CelebAHQ&#45;&gt;MergeCelebA</title>
<path fill="none" stroke="black" d="M337.81,-886.7C335.47,-878.9 332.65,-869.51 330.05,-860.83"/>
<polygon fill="black" stroke="black" points="333.36,-859.68 327.13,-851.1 326.65,-861.69 333.36,-859.68"/>
</g>
<!-- CelebA -->
<g id="node2" class="node">
<title>CelebA</title>
<path fill="#f8cecc" stroke="#b85450" d="M285,-995C285,-995 255,-995 255,-995 249,-995 243,-989 243,-983 243,-983 243,-971 243,-971 243,-965 249,-959 255,-959 255,-959 285,-959 285,-959 291,-959 297,-965 297,-971 297,-971 297,-983 297,-983 297,-989 291,-995 285,-995"/>
<text text-anchor="middle" x="270" y="-974.5" font-family="Sans-Serif" font-size="10.00">CelebA</text>
</g>
<!-- FilterCropCelebA -->
<g id="node3" class="node">
<title>FilterCropCelebA</title>
<ellipse fill="#f8cecc" stroke="#b85450" cx="270" cy="-905" rx="28.21" ry="18"/>
<text text-anchor="middle" x="270" y="-902.5" font-family="Sans-Serif" font-size="10.00">Filter, Crop</text>
</g>
<!-- CelebA&#45;&gt;FilterCropCelebA -->
<g id="edge2" class="edge">
<title>CelebA&#45;&gt;FilterCropCelebA</title>
<path fill="none" stroke="black" d="M270,-958.7C270,-950.98 270,-941.71 270,-933.11"/>
<polygon fill="black" stroke="black" points="273.5,-933.1 270,-923.1 266.5,-933.1 273.5,-933.1"/>
</g>
<!-- FilterCropCelebA&#45;&gt;MergeCelebA -->
<g id="edge3" class="edge">
<title>FilterCropCelebA&#45;&gt;MergeCelebA</title>
<path fill="none" stroke="black" d="M281.54,-888.46C288.27,-879.4 296.9,-867.79 304.46,-857.61"/>
<polygon fill="black" stroke="black" points="307.34,-859.61 310.49,-849.49 301.72,-855.43 307.34,-859.61"/>
</g>
<!-- Images -->
<g id="node5" class="node">
<title>Images</title>
<path fill="#f8cecc" stroke="#b85450" d="M367,-779C367,-779 337,-779 337,-779 331,-779 325,-773 325,-767 325,-767 325,-755 325,-755 325,-749 331,-743 337,-743 337,-743 367,-743 367,-743 373,-743 379,-749 379,-755 379,-755 379,-767 379,-767 379,-773 373,-779 367,-779"/>
<text text-anchor="middle" x="352" y="-758.5" font-family="Sans-Serif" font-size="10.00">Images</text>
</g>
<!-- MergeCelebA&#45;&gt;Images -->
<g id="edge4" class="edge">
<title>MergeCelebA&#45;&gt;Images</title>
<path fill="none" stroke="black" d="M329.11,-815.41C332.52,-807.45 336.69,-797.72 340.53,-788.76"/>
<polygon fill="black" stroke="black" points="343.8,-790.02 344.52,-779.45 337.37,-787.26 343.8,-790.02"/>
</g>
<!-- BinaryAttributes -->
<g id="node6" class="node">
<title>BinaryAttributes</title>
<path fill="#f8cecc" stroke="#b85450" d="M299.5,-707C299.5,-707 240.5,-707 240.5,-707 234.5,-707 228.5,-701 228.5,-695 228.5,-695 228.5,-683 228.5,-683 228.5,-677 234.5,-671 240.5,-671 240.5,-671 299.5,-671 299.5,-671 305.5,-671 311.5,-677 311.5,-683 311.5,-683 311.5,-695 311.5,-695 311.5,-701 305.5,-707 299.5,-707"/>
<text text-anchor="middle" x="270" y="-686.5" font-family="Sans-Serif" font-size="10.00">Binary Attributes</text>
</g>
<!-- MergeCelebA&#45;&gt;BinaryAttributes -->
<g id="edge5" class="edge">
<title>MergeCelebA&#45;&gt;BinaryAttributes</title>
<path fill="none" stroke="black" d="M315.93,-815.43C307.07,-791.22 290.47,-745.89 279.84,-716.87"/>
<polygon fill="black" stroke="black" points="283.08,-715.53 276.35,-707.35 276.5,-717.94 283.08,-715.53"/>
</g>
<!-- BLIP2Captions -->
<g id="node7" class="node">
<title>BLIP2Captions</title>
<path fill="#f8cecc" stroke="#b85450" d="M415.5,-707C415.5,-707 362.5,-707 362.5,-707 356.5,-707 350.5,-701 350.5,-695 350.5,-695 350.5,-683 350.5,-683 350.5,-677 356.5,-671 362.5,-671 362.5,-671 415.5,-671 415.5,-671 421.5,-671 427.5,-677 427.5,-683 427.5,-683 427.5,-695 427.5,-695 427.5,-701 421.5,-707 415.5,-707"/>
<text text-anchor="middle" x="389" y="-686.5" font-family="Sans-Serif" font-size="10.00">BLIP&#45;2 Captions</text>
</g>
<!-- Images&#45;&gt;BLIP2Captions -->
<g id="edge6" class="edge">
<title>Images&#45;&gt;BLIP2Captions</title>
<path fill="none" stroke="black" d="M361.15,-742.7C365.4,-734.64 370.56,-724.89 375.27,-715.98"/>
<polygon fill="black" stroke="black" points="378.38,-717.58 379.96,-707.1 372.19,-714.31 378.38,-717.58"/>
</g>
<!-- Dataset -->
<g id="node10" class="node">
<title>Dataset</title>
<path fill="#f8cecc" stroke="#b85450" d="M325,-491C325,-491 295,-491 295,-491 289,-491 283,-485 283,-479 283,-479 283,-467 283,-467 283,-461 289,-455 295,-455 295,-455 325,-455 325,-455 331,-455 337,-461 337,-467 337,-467 337,-479 337,-479 337,-485 331,-491 325,-491"/>
<text text-anchor="middle" x="310" y="-470.5" font-family="Sans-Serif" font-size="10.00">Dataset</text>
</g>
<!-- Images&#45;&gt;Dataset -->
<g id="edge11" class="edge">
<title>Images&#45;&gt;Dataset</title>
<path fill="none" stroke="black" d="M347.83,-742.91C342.94,-724.47 333.82,-694.57 321,-671 318.58,-666.55 315.7,-666.78 314,-662 294.71,-607.68 300.13,-538.85 305.35,-501.38"/>
<polygon fill="black" stroke="black" points="308.84,-501.65 306.86,-491.24 301.92,-500.61 308.84,-501.65"/>
</g>
<!-- CompareImages -->
<g id="node19" class="node">
<title>CompareImages</title>
<ellipse fill="#dae8fc" stroke="#6c8ebf" cx="355" cy="-106" rx="27" ry="18"/>
<text text-anchor="middle" x="355" y="-103.5" font-family="Sans-Serif" font-size="10.00">Compare</text>
</g>
<!-- Images&#45;&gt;CompareImages -->
<g id="edge25" class="edge">
<title>Images&#45;&gt;CompareImages</title>
<path fill="none" stroke="black" d="M379.12,-749.86C398.22,-741.31 422.82,-727.22 437,-707 460.23,-673.89 456,-658.45 456,-618 456,-618 456,-618 456,-256 456,-202.01 410,-153.03 380.09,-126.89"/>
<polygon fill="black" stroke="black" points="382.02,-123.94 372.13,-120.14 377.49,-129.28 382.02,-123.94"/>
</g>
<!-- Llama3Captions -->
<g id="node8" class="node">
<title>Llama3Captions</title>
<path fill="#f8cecc" stroke="#b85450" d="M395.5,-635C395.5,-635 334.5,-635 334.5,-635 328.5,-635 322.5,-629 322.5,-623 322.5,-623 322.5,-611 322.5,-611 322.5,-605 328.5,-599 334.5,-599 334.5,-599 395.5,-599 395.5,-599 401.5,-599 407.5,-605 407.5,-611 407.5,-611 407.5,-623 407.5,-623 407.5,-629 401.5,-635 395.5,-635"/>
<text text-anchor="middle" x="365" y="-614.5" font-family="Sans-Serif" font-size="10.00">Llama 3 Captions</text>
</g>
<!-- BinaryAttributes&#45;&gt;Llama3Captions -->
<g id="edge7" class="edge">
<title>BinaryAttributes&#45;&gt;Llama3Captions</title>
<path fill="none" stroke="black" d="M293.48,-670.7C305.56,-661.8 320.45,-650.82 333.52,-641.2"/>
<polygon fill="black" stroke="black" points="335.81,-643.85 341.79,-635.1 331.66,-638.22 335.81,-643.85"/>
</g>
<!-- WeightedSampling -->
<g id="node11" class="node">
<title>WeightedSampling</title>
<path fill="#f8cecc" stroke="#b85450" d="M311.5,-419C311.5,-419 240.5,-419 240.5,-419 234.5,-419 228.5,-413 228.5,-407 228.5,-407 228.5,-395 228.5,-395 228.5,-389 234.5,-383 240.5,-383 240.5,-383 311.5,-383 311.5,-383 317.5,-383 323.5,-389 323.5,-395 323.5,-395 323.5,-407 323.5,-407 323.5,-413 317.5,-419 311.5,-419"/>
<text text-anchor="middle" x="276" y="-398.5" font-family="Sans-Serif" font-size="10.00">Weighted Sampling</text>
</g>
<!-- BinaryAttributes&#45;&gt;WeightedSampling -->
<g id="edge13" class="edge">
<title>BinaryAttributes&#45;&gt;WeightedSampling</title>
<path fill="none" stroke="black" d="M270.17,-670.75C270.59,-632.12 271.79,-535.68 274,-455 274.23,-446.68 274.54,-437.63 274.86,-429.4"/>
<polygon fill="black" stroke="black" points="278.36,-429.31 275.26,-419.18 271.37,-429.04 278.36,-429.31"/>
</g>
<!-- BLIP2Captions&#45;&gt;Llama3Captions -->
<g id="edge8" class="edge">
<title>BLIP2Captions&#45;&gt;Llama3Captions</title>
<path fill="none" stroke="black" d="M383.07,-670.7C380.39,-662.9 377.17,-653.51 374.2,-644.83"/>
<polygon fill="black" stroke="black" points="377.42,-643.43 370.86,-635.1 370.8,-645.7 377.42,-643.43"/>
</g>
<!-- Prompts -->
<g id="node9" class="node">
<title>Prompts</title>
<path fill="#f8cecc" stroke="#b85450" d="M380,-563C380,-563 350,-563 350,-563 344,-563 338,-557 338,-551 338,-551 338,-539 338,-539 338,-533 344,-527 350,-527 350,-527 380,-527 380,-527 386,-527 392,-533 392,-539 392,-539 392,-551 392,-551 392,-557 386,-563 380,-563"/>
<text text-anchor="middle" x="365" y="-542.5" font-family="Sans-Serif" font-size="10.00">Prompts</text>
</g>
<!-- BLIP2Captions&#45;&gt;Prompts -->
<g id="edge9" class="edge">
<title>BLIP2Captions&#45;&gt;Prompts</title>
<path fill="none" stroke="black" d="M411.38,-670.81C413.65,-668.11 415.62,-665.16 417,-662 428.19,-636.33 427.59,-624.92 417,-599 412.51,-588.02 404.53,-578.08 396.15,-569.86"/>
<polygon fill="black" stroke="black" points="398.49,-567.26 388.75,-563.09 393.76,-572.42 398.49,-567.26"/>
</g>
<!-- Llama3Captions&#45;&gt;Prompts -->
<g id="edge10" class="edge">
<title>Llama3Captions&#45;&gt;Prompts</title>
<path fill="none" stroke="black" d="M365,-598.7C365,-590.98 365,-581.71 365,-573.11"/>
<polygon fill="black" stroke="black" points="368.5,-573.1 365,-563.1 361.5,-573.1 368.5,-573.1"/>
</g>
<!-- Prompts&#45;&gt;Dataset -->
<g id="edge12" class="edge">
<title>Prompts&#45;&gt;Dataset</title>
<path fill="none" stroke="black" d="M351.4,-526.7C344.88,-518.39 336.93,-508.28 329.75,-499.14"/>
<polygon fill="black" stroke="black" points="332.37,-496.81 323.44,-491.1 326.87,-501.13 332.37,-496.81"/>
</g>
<!-- ImageGeneration -->
<g id="node18" class="node">
<title>ImageGeneration</title>
<path fill="#dae8fc" stroke="#6c8ebf" d="M202,-196C202,-196 138,-196 138,-196 132,-196 126,-190 126,-184 126,-184 126,-172 126,-172 126,-166 132,-160 138,-160 138,-160 202,-160 202,-160 208,-160 214,-166 214,-172 214,-172 214,-184 214,-184 214,-190 208,-196 202,-196"/>
<text text-anchor="middle" x="170" y="-175.5" font-family="Sans-Serif" font-size="10.00">Image Generation</text>
</g>
<!-- Prompts&#45;&gt;ImageGeneration -->
<g id="edge24" class="edge">
<title>Prompts&#45;&gt;ImageGeneration</title>
<path fill="none" stroke="black" d="M365,-526.95C365,-500.29 365,-447.11 365,-402 365,-402 365,-402 365,-328 365,-256.71 281.7,-214.96 223.99,-194.59"/>
<polygon fill="black" stroke="black" points="224.84,-191.18 214.25,-191.27 222.58,-197.81 224.84,-191.18"/>
</g>
<!-- Dataset&#45;&gt;WeightedSampling -->
<g id="edge14" class="edge">
<title>Dataset&#45;&gt;WeightedSampling</title>
<path fill="none" stroke="black" d="M301.6,-454.7C297.73,-446.73 293.05,-437.1 288.76,-428.26"/>
<polygon fill="black" stroke="black" points="291.83,-426.57 284.31,-419.1 285.53,-429.63 291.83,-426.57"/>
</g>
<!-- FineTune -->
<g id="node16" class="node">
<title>FineTune</title>
<ellipse fill="#d5e8d4" stroke="#82b366" cx="161" cy="-329" rx="27" ry="18"/>
<text text-anchor="middle" x="161" y="-326.5" font-family="Sans-Serif" font-size="10.00">Fine&#45;Tune</text>
</g>
<!-- WeightedSampling&#45;&gt;FineTune -->
<g id="edge19" class="edge">
<title>WeightedSampling&#45;&gt;FineTune</title>
<path fill="none" stroke="black" d="M247.87,-382.88C229.97,-371.98 206.89,-357.94 189.02,-347.06"/>
<polygon fill="black" stroke="black" points="190.57,-343.9 180.21,-341.69 186.93,-349.88 190.57,-343.9"/>
</g>
<!-- PretrainedModel -->
<g id="node12" class="node">
<title>PretrainedModel</title>
<path fill="#d5e8d4" stroke="#82b366" d="M136,-635C136,-635 76,-635 76,-635 70,-635 64,-629 64,-623 64,-623 64,-611 64,-611 64,-605 70,-599 76,-599 76,-599 136,-599 136,-599 142,-599 148,-605 148,-611 148,-611 148,-623 148,-623 148,-629 142,-635 136,-635"/>
<text text-anchor="middle" x="106" y="-614.5" font-family="Sans-Serif" font-size="10.00">Pretrained Model</text>
</g>
<!-- MeanAblationExperiments -->
<g id="node13" class="node">
<title>MeanAblationExperiments</title>
<path fill="#d5e8d4" stroke="#82b366" d="M162,-563C162,-563 50,-563 50,-563 44,-563 38,-557 38,-551 38,-551 38,-539 38,-539 38,-533 44,-527 50,-527 50,-527 162,-527 162,-527 168,-527 174,-533 174,-539 174,-539 174,-551 174,-551 174,-557 168,-563 162,-563"/>
<text text-anchor="middle" x="106" y="-542.5" font-family="Sans-Serif" font-size="10.00">Mean Ablation Experiments</text>
</g>
<!-- PretrainedModel&#45;&gt;MeanAblationExperiments -->
<g id="edge15" class="edge">
<title>PretrainedModel&#45;&gt;MeanAblationExperiments</title>
<path fill="none" stroke="black" d="M106,-598.7C106,-590.98 106,-581.71 106,-573.11"/>
<polygon fill="black" stroke="black" points="109.5,-573.1 106,-563.1 102.5,-573.1 109.5,-573.1"/>
</g>
<!-- StableDiffusion3LoRA -->
<g id="node15" class="node">
<title>StableDiffusion3LoRA</title>
<path fill="#d5e8d4" stroke="#82b366" d="M192,-419C192,-419 90,-419 90,-419 84,-419 78,-413 78,-407 78,-407 78,-395 78,-395 78,-389 84,-383 90,-383 90,-383 192,-383 192,-383 198,-383 204,-389 204,-395 204,-395 204,-407 204,-407 204,-413 198,-419 192,-419"/>
<text text-anchor="middle" x="141" y="-398.5" font-family="Sans-Serif" font-size="10.00">Stable Diffusion 3 + LoRA</text>
</g>
<!-- PretrainedModel&#45;&gt;StableDiffusion3LoRA -->
<g id="edge17" class="edge">
<title>PretrainedModel&#45;&gt;StableDiffusion3LoRA</title>
<path fill="none" stroke="black" d="M143.42,-598.77C158.09,-590.11 173.62,-578.19 183,-563 208.32,-521.98 211.24,-499.62 193,-455 188.51,-444.02 180.53,-434.08 172.15,-425.86"/>
<polygon fill="black" stroke="black" points="174.49,-423.26 164.75,-419.09 169.76,-428.42 174.49,-423.26"/>
</g>
<!-- PretrainedModel&#45;&gt;ImageGeneration -->
<g id="edge22" class="edge">
<title>PretrainedModel&#45;&gt;ImageGeneration</title>
<path fill="none" stroke="black" d="M71.43,-598.85C56.55,-589.95 40.07,-577.82 29,-563 4.11,-529.67 0,-515.6 0,-474 0,-474 0,-474 0,-328 0,-265.14 66.55,-222.61 116.38,-199.58"/>
<polygon fill="black" stroke="black" points="118.08,-202.65 125.78,-195.37 115.22,-196.26 118.08,-202.65"/>
</g>
<!-- TransformerBlocksToFineTune -->
<g id="node14" class="node">
<title>TransformerBlocksToFineTune</title>
<path fill="#d5e8d4" stroke="#82b366" d="M172,-491C172,-491 40,-491 40,-491 34,-491 28,-485 28,-479 28,-479 28,-467 28,-467 28,-461 34,-455 40,-455 40,-455 172,-455 172,-455 178,-455 184,-461 184,-467 184,-467 184,-479 184,-479 184,-485 178,-491 172,-491"/>
<text text-anchor="middle" x="106" y="-470.5" font-family="Sans-Serif" font-size="10.00">Transformer Blocks to Fine&#45;Tune</text>
</g>
<!-- MeanAblationExperiments&#45;&gt;TransformerBlocksToFineTune -->
<g id="edge16" class="edge">
<title>MeanAblationExperiments&#45;&gt;TransformerBlocksToFineTune</title>
<path fill="none" stroke="black" d="M106,-526.7C106,-518.98 106,-509.71 106,-501.11"/>
<polygon fill="black" stroke="black" points="109.5,-501.1 106,-491.1 102.5,-501.1 109.5,-501.1"/>
</g>
<!-- TransformerBlocksToFineTune&#45;&gt;StableDiffusion3LoRA -->
<g id="edge18" class="edge">
<title>TransformerBlocksToFineTune&#45;&gt;StableDiffusion3LoRA</title>
<path fill="none" stroke="black" d="M114.65,-454.7C118.64,-446.73 123.45,-437.1 127.87,-428.26"/>
<polygon fill="black" stroke="black" points="131.11,-429.61 132.45,-419.1 124.85,-426.48 131.11,-429.61"/>
</g>
<!-- StableDiffusion3LoRA&#45;&gt;FineTune -->
<g id="edge20" class="edge">
<title>StableDiffusion3LoRA&#45;&gt;FineTune</title>
<path fill="none" stroke="black" d="M145.94,-382.7C148.17,-374.9 150.85,-365.51 153.33,-356.83"/>
<polygon fill="black" stroke="black" points="156.73,-357.68 156.11,-347.1 150,-355.76 156.73,-357.68"/>
</g>
<!-- FineTunedModel -->
<g id="node17" class="node">
<title>FineTunedModel</title>
<path fill="#d5e8d4" stroke="#82b366" d="M191.5,-275C191.5,-275 130.5,-275 130.5,-275 124.5,-275 118.5,-269 118.5,-263 118.5,-263 118.5,-251 118.5,-251 118.5,-245 124.5,-239 130.5,-239 130.5,-239 191.5,-239 191.5,-239 197.5,-239 203.5,-245 203.5,-251 203.5,-251 203.5,-263 203.5,-263 203.5,-269 197.5,-275 191.5,-275"/>
<text text-anchor="middle" x="161" y="-254.5" font-family="Sans-Serif" font-size="10.00">Fine&#45;tuned Model</text>
</g>
<!-- FineTune&#45;&gt;FineTunedModel -->
<g id="edge21" class="edge">
<title>FineTune&#45;&gt;FineTunedModel</title>
<path fill="none" stroke="black" d="M161,-310.7C161,-302.98 161,-293.71 161,-285.11"/>
<polygon fill="black" stroke="black" points="164.5,-285.1 161,-275.1 157.5,-285.1 164.5,-285.1"/>
</g>
<!-- FineTunedModel&#45;&gt;ImageGeneration -->
<g id="edge23" class="edge">
<title>FineTunedModel&#45;&gt;ImageGeneration</title>
<path fill="none" stroke="black" d="M163,-238.91C164.13,-229.24 165.57,-216.93 166.85,-205.98"/>
<polygon fill="black" stroke="black" points="170.32,-206.38 168.01,-196.04 163.37,-205.57 170.32,-206.38"/>
</g>
<!-- ImageGeneration&#45;&gt;CompareImages -->
<g id="edge26" class="edge">
<title>ImageGeneration&#45;&gt;CompareImages</title>
<path fill="none" stroke="black" d="M214.12,-162.59C244,-152.52 284.23,-138.35 319,-124 320.82,-123.25 322.68,-122.45 324.55,-121.63"/>
<polygon fill="black" stroke="black" points="326.18,-124.74 333.84,-117.42 323.28,-118.37 326.18,-124.74"/>
</g>
<!-- FeaturesCosineSimilarities -->
<g id="node21" class="node">
<title>FeaturesCosineSimilarities</title>
<path fill="#dae8fc" stroke="#6c8ebf" d="M192,-124C192,-124 76,-124 76,-124 70,-124 64,-118 64,-112 64,-112 64,-100 64,-100 64,-94 70,-88 76,-88 76,-88 192,-88 192,-88 198,-88 204,-94 204,-100 204,-100 204,-112 204,-112 204,-118 198,-124 192,-124"/>
<text text-anchor="middle" x="134" y="-103.5" font-family="Sans-Serif" font-size="10.00">Features&#39; Cosine Similarities</text>
</g>
<!-- ImageGeneration&#45;&gt;FeaturesCosineSimilarities -->
<g id="edge28" class="edge">
<title>ImageGeneration&#45;&gt;FeaturesCosineSimilarities</title>
<path fill="none" stroke="black" d="M161.1,-159.7C157,-151.73 152.05,-142.1 147.51,-133.26"/>
<polygon fill="black" stroke="black" points="150.48,-131.4 142.8,-124.1 144.26,-134.6 150.48,-131.4"/>
</g>
<!-- AttentionWeights -->
<g id="node23" class="node">
<title>AttentionWeights</title>
<path fill="#dae8fc" stroke="#6c8ebf" d="M298,-124C298,-124 234,-124 234,-124 228,-124 222,-118 222,-112 222,-112 222,-100 222,-100 222,-94 228,-88 234,-88 234,-88 298,-88 298,-88 304,-88 310,-94 310,-100 310,-100 310,-112 310,-112 310,-118 304,-124 298,-124"/>
<text text-anchor="middle" x="266" y="-103.5" font-family="Sans-Serif" font-size="10.00">Attention Weights</text>
</g>
<!-- ImageGeneration&#45;&gt;AttentionWeights -->
<g id="edge30" class="edge">
<title>ImageGeneration&#45;&gt;AttentionWeights</title>
<path fill="none" stroke="black" d="M193.73,-159.7C205.94,-150.8 220.99,-139.82 234.18,-130.2"/>
<polygon fill="black" stroke="black" points="236.52,-132.82 242.54,-124.1 232.4,-127.17 236.52,-132.82"/>
</g>
<!-- FIDScores -->
<g id="node20" class="node">
<title>FIDScores</title>
<path fill="#dae8fc" stroke="#6c8ebf" d="M370,-52C370,-52 340,-52 340,-52 334,-52 328,-46 328,-40 328,-40 328,-28 328,-28 328,-22 334,-16 340,-16 340,-16 370,-16 370,-16 376,-16 382,-22 382,-28 382,-28 382,-40 382,-40 382,-46 376,-52 370,-52"/>
<text text-anchor="middle" x="355" y="-31.5" font-family="Sans-Serif" font-size="10.00">FID Scores</text>
</g>
<!-- CompareImages&#45;&gt;FIDScores -->
<g id="edge27" class="edge">
<title>CompareImages&#45;&gt;FIDScores</title>
<path fill="none" stroke="black" d="M355,-87.7C355,-79.98 355,-70.71 355,-62.11"/>
<polygon fill="black" stroke="black" points="358.5,-62.1 355,-52.1 351.5,-62.1 358.5,-62.1"/>
</g>
<!-- FeaturesCosineSimilaritiesNCUT -->
<g id="node22" class="node">
<title>FeaturesCosineSimilaritiesNCUT</title>
<path fill="#dae8fc" stroke="#6c8ebf" d="M122,-52C122,-52 92,-52 92,-52 86,-52 80,-46 80,-40 80,-40 80,-28 80,-28 80,-22 86,-16 92,-16 92,-16 122,-16 122,-16 128,-16 134,-22 134,-28 134,-28 134,-40 134,-40 134,-46 128,-52 122,-52"/>
<text text-anchor="middle" x="107" y="-31.5" font-family="Sans-Serif" font-size="10.00">NCUT</text>
</g>
<!-- FeaturesCosineSimilarities&#45;&gt;FeaturesCosineSimilaritiesNCUT -->
<g id="edge29" class="edge">
<title>FeaturesCosineSimilarities&#45;&gt;FeaturesCosineSimilaritiesNCUT</title>
<path fill="none" stroke="black" d="M127.33,-87.7C124.29,-79.81 120.62,-70.3 117.24,-61.55"/>
<polygon fill="black" stroke="black" points="120.46,-60.17 113.6,-52.1 113.93,-62.69 120.46,-60.17"/>
</g>
<!-- AttentionWeightsHeatmap -->
<g id="node24" class="node">
<title>AttentionWeightsHeatmap</title>
<path fill="#dae8fc" stroke="#6c8ebf" d="M298,-52C298,-52 268,-52 268,-52 262,-52 256,-46 256,-40 256,-40 256,-28 256,-28 256,-22 262,-16 268,-16 268,-16 298,-16 298,-16 304,-16 310,-22 310,-28 310,-28 310,-40 310,-40 310,-46 304,-52 298,-52"/>
<text text-anchor="middle" x="283" y="-31.5" font-family="Sans-Serif" font-size="10.00">Heatmap</text>
</g>
<!-- AttentionWeights&#45;&gt;AttentionWeightsHeatmap -->
<g id="edge31" class="edge">
<title>AttentionWeights&#45;&gt;AttentionWeightsHeatmap</title>
<path fill="none" stroke="black" d="M270.2,-87.7C272.1,-79.9 274.38,-70.51 276.48,-61.83"/>
<polygon fill="black" stroke="black" points="279.89,-62.65 278.85,-52.1 273.08,-61 279.89,-62.65"/>
</g>
<!-- AttentionWeightsNCUTUndirected -->
<g id="node25" class="node">
<title>AttentionWeightsNCUTUndirected</title>
<path fill="#dae8fc" stroke="#6c8ebf" d="M225.5,-52C225.5,-52 164.5,-52 164.5,-52 158.5,-52 152.5,-46 152.5,-40 152.5,-40 152.5,-28 152.5,-28 152.5,-22 158.5,-16 164.5,-16 164.5,-16 225.5,-16 225.5,-16 231.5,-16 237.5,-22 237.5,-28 237.5,-28 237.5,-40 237.5,-40 237.5,-46 231.5,-52 225.5,-52"/>
<text text-anchor="middle" x="195" y="-31.5" font-family="Sans-Serif" font-size="10.00">NCUT Undirected</text>
</g>
<!-- AttentionWeights&#45;&gt;AttentionWeightsNCUTUndirected -->
<g id="edge32" class="edge">
<title>AttentionWeights&#45;&gt;AttentionWeightsNCUTUndirected</title>
<path fill="none" stroke="black" d="M248.45,-87.7C239.77,-79.14 229.14,-68.66 219.65,-59.3"/>
<polygon fill="black" stroke="black" points="221.93,-56.63 212.35,-52.1 217.01,-61.62 221.93,-56.63"/>
</g>
</g>
</svg>
