<?xml version="1.0" encoding="UTF-8" standalone="no"?>
<!DOCTYPE svg PUBLIC "-//W3C//DTD SVG 1.1//EN"
 "http://www.w3.org/Graphics/SVG/1.1/DTD/svg11.dtd">
<!-- Generated by graphviz version 2.43.0 (0)
 -->
<!-- Title: G Pages: 1 -->
<svg width="480pt" height="1110pt"
 viewBox="0.00 0.00 480.00 1110.00" xmlns="http://www.w3.org/2000/svg" xmlns:xlink="http://www.w3.org/1999/xlink">
<g id="graph0" class="graph" transform="scale(1 1) rotate(0) translate(4 1106)">
<title>G</title>
<polygon fill="white" stroke="transparent" points="-4,4 -4,-1106 476,-1106 476,4 -4,4"/>
<g id="clust1" class="cluster">
<title>cluster_0</title>
<polygon fill="none" stroke="black" points="220,-447 220,-1094 436,-1094 436,-447 220,-447"/>
<text text-anchor="middle" x="328" y="-1082" font-family="Sans-Serif" font-size="10.00">Dataset Preparation</text>
</g>
<g id="clust2" class="cluster">
<title>cluster_1</title>
<polygon fill="none" stroke="black" points="20,-303 20,-734 212,-734 212,-303 20,-303"/>
<text text-anchor="middle" x="116" y="-722" font-family="Sans-Serif" font-size="10.00">Fine&#45;Tuning</text>
</g>
<g id="clust3" class="cluster">
<title>cluster_2</title>
<polygon fill="none" stroke="black" points="238,-8 238,-295 464,-295 464,-8 238,-8"/>
<text text-anchor="middle" x="351" y="-283" font-family="Sans-Serif" font-size="10.00">Result Analysis</text>
</g>
<!-- CelebAHQ -->
<g id="node1" class="node">
<title>CelebAHQ</title>
<path fill="#f8cecc" stroke="#b85450" d="M351,-995C351,-995 321,-995 321,-995 315,-995 309,-989 309,-983 309,-983 309,-971 309,-971 309,-965 315,-959 321,-959 321,-959 351,-959 351,-959 357,-959 363,-965 363,-971 363,-971 363,-983 363,-983 363,-989 357,-995 351,-995"/>
<text text-anchor="middle" x="336" y="-974.5" font-family="Sans-Serif" font-size="10.00">CelebA&#45;HQ</text>
</g>
<!-- MergeCelebA -->
<g id="node4" class="node">
<title>MergeCelebA</title>
<ellipse fill="#f8cecc" stroke="#b85450" cx="307" cy="-905" rx="27" ry="18"/>
<text text-anchor="middle" x="307" y="-902.5" font-family="Sans-Serif" font-size="10.00">Merge</text>
</g>
<!-- CelebAHQ&#45;&gt;MergeCelebA -->
<g id="edge1" class="edge">
<title>CelebAHQ&#45;&gt;MergeCelebA</title>
<path fill="none" stroke="black" d="M328.83,-958.7C325.48,-950.61 321.42,-940.81 317.72,-931.87"/>
<polygon fill="black" stroke="black" points="320.95,-930.52 313.89,-922.62 314.48,-933.2 320.95,-930.52"/>
</g>
<!-- CelebA -->
<g id="node2" class="node">
<title>CelebA</title>
<path fill="#f8cecc" stroke="#b85450" d="M278,-1067C278,-1067 248,-1067 248,-1067 242,-1067 236,-1061 236,-1055 236,-1055 236,-1043 236,-1043 236,-1037 242,-1031 248,-1031 248,-1031 278,-1031 278,-1031 284,-1031 290,-1037 290,-1043 290,-1043 290,-1055 290,-1055 290,-1061 284,-1067 278,-1067"/>
<text text-anchor="middle" x="263" y="-1046.5" font-family="Sans-Serif" font-size="10.00">CelebA</text>
</g>
<!-- FilterCropCelebA -->
<g id="node3" class="node">
<title>FilterCropCelebA</title>
<ellipse fill="#f8cecc" stroke="#b85450" cx="263" cy="-977" rx="28.21" ry="18"/>
<text text-anchor="middle" x="263" y="-974.5" font-family="Sans-Serif" font-size="10.00">Filter, Crop</text>
</g>
<!-- CelebA&#45;&gt;FilterCropCelebA -->
<g id="edge2" class="edge">
<title>CelebA&#45;&gt;FilterCropCelebA</title>
<path fill="none" stroke="black" d="M263,-1030.7C263,-1022.98 263,-1013.71 263,-1005.11"/>
<polygon fill="black" stroke="black" points="266.5,-1005.1 263,-995.1 259.5,-1005.1 266.5,-1005.1"/>
</g>
<!-- FilterCropCelebA&#45;&gt;MergeCelebA -->
<g id="edge3" class="edge">
<title>FilterCropCelebA&#45;&gt;MergeCelebA</title>
<path fill="none" stroke="black" d="M272.98,-960.12C278.5,-951.34 285.46,-940.26 291.65,-930.42"/>
<polygon fill="black" stroke="black" points="294.7,-932.15 297.06,-921.82 288.77,-928.42 294.7,-932.15"/>
</g>
<!-- Images -->
<g id="node5" class="node">
<title>Images</title>
<path fill="#f8cecc" stroke="#b85450" d="M375,-851C375,-851 345,-851 345,-851 339,-851 333,-845 333,-839 333,-839 333,-827 333,-827 333,-821 339,-815 345,-815 345,-815 375,-815 375,-815 381,-815 387,-821 387,-827 387,-827 387,-839 387,-839 387,-845 381,-851 375,-851"/>
<text text-anchor="middle" x="360" y="-830.5" font-family="Sans-Serif" font-size="10.00">Images</text>
</g>
<!-- MergeCelebA&#45;&gt;Images -->
<g id="edge4" class="edge">
<title>MergeCelebA&#45;&gt;Images</title>
<path fill="none" stroke="black" d="M318.76,-888.46C325.18,-879.99 333.28,-869.29 340.61,-859.61"/>
<polygon fill="black" stroke="black" points="343.53,-861.55 346.78,-851.46 337.95,-857.32 343.53,-861.55"/>
</g>
<!-- BinaryAttributes -->
<g id="node6" class="node">
<title>BinaryAttributes</title>
<path fill="#f8cecc" stroke="#b85450" d="M299.5,-779C299.5,-779 240.5,-779 240.5,-779 234.5,-779 228.5,-773 228.5,-767 228.5,-767 228.5,-755 228.5,-755 228.5,-749 234.5,-743 240.5,-743 240.5,-743 299.5,-743 299.5,-743 305.5,-743 311.5,-749 311.5,-755 311.5,-755 311.5,-767 311.5,-767 311.5,-773 305.5,-779 299.5,-779"/>
<text text-anchor="middle" x="270" y="-758.5" font-family="Sans-Serif" font-size="10.00">Binary Attributes</text>
</g>
<!-- MergeCelebA&#45;&gt;BinaryAttributes -->
<g id="edge5" class="edge">
<title>MergeCelebA&#45;&gt;BinaryAttributes</title>
<path fill="none" stroke="black" d="M302.61,-887.15C296.3,-862.94 284.61,-818.05 277.07,-789.13"/>
<polygon fill="black" stroke="black" points="280.41,-788.06 274.5,-779.27 273.63,-789.83 280.41,-788.06"/>
</g>
<!-- BLIP2Captions -->
<g id="node7" class="node">
<title>BLIP2Captions</title>
<path fill="#f8cecc" stroke="#b85450" d="M415.5,-779C415.5,-779 362.5,-779 362.5,-779 356.5,-779 350.5,-773 350.5,-767 350.5,-767 350.5,-755 350.5,-755 350.5,-749 356.5,-743 362.5,-743 362.5,-743 415.5,-743 415.5,-743 421.5,-743 427.5,-749 427.5,-755 427.5,-755 427.5,-767 427.5,-767 427.5,-773 421.5,-779 415.5,-779"/>
<text text-anchor="middle" x="389" y="-758.5" font-family="Sans-Serif" font-size="10.00">BLIP&#45;2 Captions</text>
</g>
<!-- Images&#45;&gt;BLIP2Captions -->
<g id="edge6" class="edge">
<title>Images&#45;&gt;BLIP2Captions</title>
<path fill="none" stroke="black" d="M367.17,-814.7C370.43,-806.81 374.37,-797.3 378,-788.55"/>
<polygon fill="black" stroke="black" points="381.32,-789.68 381.91,-779.1 374.85,-787 381.32,-789.68"/>
</g>
<!-- Dataset -->
<g id="node10" class="node">
<title>Dataset</title>
<path fill="#f8cecc" stroke="#b85450" d="M325,-563C325,-563 295,-563 295,-563 289,-563 283,-557 283,-551 283,-551 283,-539 283,-539 283,-533 289,-527 295,-527 295,-527 325,-527 325,-527 331,-527 337,-533 337,-539 337,-539 337,-551 337,-551 337,-557 331,-563 325,-563"/>
<text text-anchor="middle" x="310" y="-542.5" font-family="Sans-Serif" font-size="10.00">Dataset</text>
</g>
<!-- Images&#45;&gt;Dataset -->
<g id="edge11" class="edge">
<title>Images&#45;&gt;Dataset</title>
<path fill="none" stroke="black" d="M353.99,-814.99C347.18,-796.61 335.15,-766.77 321,-743 318.41,-738.65 315.7,-738.78 314,-734 294.71,-679.68 300.13,-610.85 305.35,-573.38"/>
<polygon fill="black" stroke="black" points="308.84,-573.65 306.86,-563.24 301.92,-572.61 308.84,-573.65"/>
</g>
<!-- CompareImages -->
<g id="node19" class="node">
<title>CompareImages</title>
<ellipse fill="#dae8fc" stroke="#6c8ebf" cx="429" cy="-178" rx="27" ry="18"/>
<text text-anchor="middle" x="429" y="-175.5" font-family="Sans-Serif" font-size="10.00">Compare</text>
</g>
<!-- Images&#45;&gt;CompareImages -->
<g id="edge25" class="edge">
<title>Images&#45;&gt;CompareImages</title>
<path fill="none" stroke="black" d="M387.19,-819.88C404.08,-810.96 424.83,-797.22 437,-779 459.47,-745.37 456,-730.45 456,-690 456,-690 456,-690 456,-328 456,-284.68 444.82,-235.4 436.84,-205.78"/>
<polygon fill="black" stroke="black" points="440.12,-204.5 434.08,-195.8 433.38,-206.37 440.12,-204.5"/>
</g>
<!-- Llama3Captions -->
<g id="node8" class="node">
<title>Llama3Captions</title>
<path fill="#f8cecc" stroke="#b85450" d="M395.5,-707C395.5,-707 334.5,-707 334.5,-707 328.5,-707 322.5,-701 322.5,-695 322.5,-695 322.5,-683 322.5,-683 322.5,-677 328.5,-671 334.5,-671 334.5,-671 395.5,-671 395.5,-671 401.5,-671 407.5,-677 407.5,-683 407.5,-683 407.5,-695 407.5,-695 407.5,-701 401.5,-707 395.5,-707"/>
<text text-anchor="middle" x="365" y="-686.5" font-family="Sans-Serif" font-size="10.00">Llama 3 Captions</text>
</g>
<!-- BinaryAttributes&#45;&gt;Llama3Captions -->
<g id="edge7" class="edge">
<title>BinaryAttributes&#45;&gt;Llama3Captions</title>
<path fill="none" stroke="black" d="M293.48,-742.7C305.56,-733.8 320.45,-722.82 333.52,-713.2"/>
<polygon fill="black" stroke="black" points="335.81,-715.85 341.79,-707.1 331.66,-710.22 335.81,-715.85"/>
</g>
<!-- WeightedSampling -->
<g id="node11" class="node">
<title>WeightedSampling</title>
<path fill="#f8cecc" stroke="#b85450" d="M311.5,-491C311.5,-491 240.5,-491 240.5,-491 234.5,-491 228.5,-485 228.5,-479 228.5,-479 228.5,-467 228.5,-467 228.5,-461 234.5,-455 240.5,-455 240.5,-455 311.5,-455 311.5,-455 317.5,-455 323.5,-461 323.5,-467 323.5,-467 323.5,-479 323.5,-479 323.5,-485 317.5,-491 311.5,-491"/>
<text text-anchor="middle" x="276" y="-470.5" font-family="Sans-Serif" font-size="10.00">Weighted Sampling</text>
</g>
<!-- BinaryAttributes&#45;&gt;WeightedSampling -->
<g id="edge13" class="edge">
<title>BinaryAttributes&#45;&gt;WeightedSampling</title>
<path fill="none" stroke="black" d="M270.17,-742.75C270.59,-704.12 271.79,-607.68 274,-527 274.23,-518.68 274.54,-509.63 274.86,-501.4"/>
<polygon fill="black" stroke="black" points="278.36,-501.31 275.26,-491.18 271.37,-501.04 278.36,-501.31"/>
</g>
<!-- BLIP2Captions&#45;&gt;Llama3Captions -->
<g id="edge8" class="edge">
<title>BLIP2Captions&#45;&gt;Llama3Captions</title>
<path fill="none" stroke="black" d="M383.07,-742.7C380.39,-734.9 377.17,-725.51 374.2,-716.83"/>
<polygon fill="black" stroke="black" points="377.42,-715.43 370.86,-707.1 370.8,-717.7 377.42,-715.43"/>
</g>
<!-- Prompts -->
<g id="node9" class="node">
<title>Prompts</title>
<path fill="#f8cecc" stroke="#b85450" d="M380,-635C380,-635 350,-635 350,-635 344,-635 338,-629 338,-623 338,-623 338,-611 338,-611 338,-605 344,-599 350,-599 350,-599 380,-599 380,-599 386,-599 392,-605 392,-611 392,-611 392,-623 392,-623 392,-629 386,-635 380,-635"/>
<text text-anchor="middle" x="365" y="-614.5" font-family="Sans-Serif" font-size="10.00">Prompts</text>
</g>
<!-- BLIP2Captions&#45;&gt;Prompts -->
<g id="edge9" class="edge">
<title>BLIP2Captions&#45;&gt;Prompts</title>
<path fill="none" stroke="black" d="M411.38,-742.81C413.65,-740.11 415.62,-737.16 417,-734 428.19,-708.33 427.59,-696.92 417,-671 412.51,-660.02 404.53,-650.08 396.15,-641.86"/>
<polygon fill="black" stroke="black" points="398.49,-639.26 388.75,-635.09 393.76,-644.42 398.49,-639.26"/>
</g>
<!-- Llama3Captions&#45;&gt;Prompts -->
<g id="edge10" class="edge">
<title>Llama3Captions&#45;&gt;Prompts</title>
<path fill="none" stroke="black" d="M365,-670.7C365,-662.98 365,-653.71 365,-645.11"/>
<polygon fill="black" stroke="black" points="368.5,-645.1 365,-635.1 361.5,-645.1 368.5,-645.1"/>
</g>
<!-- Prompts&#45;&gt;Dataset -->
<g id="edge12" class="edge">
<title>Prompts&#45;&gt;Dataset</title>
<path fill="none" stroke="black" d="M351.4,-598.7C344.88,-590.39 336.93,-580.28 329.75,-571.14"/>
<polygon fill="black" stroke="black" points="332.37,-568.81 323.44,-563.1 326.87,-573.13 332.37,-568.81"/>
</g>
<!-- ImageGeneration -->
<g id="node18" class="node">
<title>ImageGeneration</title>
<path fill="#dae8fc" stroke="#6c8ebf" d="M347,-268C347,-268 283,-268 283,-268 277,-268 271,-262 271,-256 271,-256 271,-244 271,-244 271,-238 277,-232 283,-232 283,-232 347,-232 347,-232 353,-232 359,-238 359,-244 359,-244 359,-256 359,-256 359,-262 353,-268 347,-268"/>
<text text-anchor="middle" x="315" y="-247.5" font-family="Sans-Serif" font-size="10.00">Image Generation</text>
</g>
<!-- Prompts&#45;&gt;ImageGeneration -->
<g id="edge24" class="edge">
<title>Prompts&#45;&gt;ImageGeneration</title>
<path fill="none" stroke="black" d="M365,-598.95C365,-572.29 365,-519.11 365,-474 365,-474 365,-474 365,-400 365,-355.14 344.38,-306.44 329.62,-277.34"/>
<polygon fill="black" stroke="black" points="332.61,-275.5 324.88,-268.26 326.4,-278.74 332.61,-275.5"/>
</g>
<!-- Dataset&#45;&gt;WeightedSampling -->
<g id="edge14" class="edge">
<title>Dataset&#45;&gt;WeightedSampling</title>
<path fill="none" stroke="black" d="M301.6,-526.7C297.73,-518.73 293.05,-509.1 288.76,-500.26"/>
<polygon fill="black" stroke="black" points="291.83,-498.57 284.31,-491.1 285.53,-501.63 291.83,-498.57"/>
</g>
<!-- FineTune -->
<g id="node16" class="node">
<title>FineTune</title>
<ellipse fill="#d5e8d4" stroke="#82b366" cx="161" cy="-401" rx="27" ry="18"/>
<text text-anchor="middle" x="161" y="-398.5" font-family="Sans-Serif" font-size="10.00">Fine&#45;Tune</text>
</g>
<!-- WeightedSampling&#45;&gt;FineTune -->
<g id="edge19" class="edge">
<title>WeightedSampling&#45;&gt;FineTune</title>
<path fill="none" stroke="black" d="M247.87,-454.88C229.97,-443.98 206.89,-429.94 189.02,-419.06"/>
<polygon fill="black" stroke="black" points="190.57,-415.9 180.21,-413.69 186.93,-421.88 190.57,-415.9"/>
</g>
<!-- PretrainedModel -->
<g id="node12" class="node">
<title>PretrainedModel</title>
<path fill="#d5e8d4" stroke="#82b366" d="M136,-707C136,-707 76,-707 76,-707 70,-707 64,-701 64,-695 64,-695 64,-683 64,-683 64,-677 70,-671 76,-671 76,-671 136,-671 136,-671 142,-671 148,-677 148,-683 148,-683 148,-695 148,-695 148,-701 142,-707 136,-707"/>
<text text-anchor="middle" x="106" y="-686.5" font-family="Sans-Serif" font-size="10.00">Pretrained Model</text>
</g>
<!-- MeanAblationExperiments -->
<g id="node13" class="node">
<title>MeanAblationExperiments</title>
<path fill="#d5e8d4" stroke="#82b366" d="M162,-635C162,-635 50,-635 50,-635 44,-635 38,-629 38,-623 38,-623 38,-611 38,-611 38,-605 44,-599 50,-599 50,-599 162,-599 162,-599 168,-599 174,-605 174,-611 174,-611 174,-623 174,-623 174,-629 168,-635 162,-635"/>
<text text-anchor="middle" x="106" y="-614.5" font-family="Sans-Serif" font-size="10.00">Mean Ablation Experiments</text>
</g>
<!-- PretrainedModel&#45;&gt;MeanAblationExperiments -->
<g id="edge15" class="edge">
<title>PretrainedModel&#45;&gt;MeanAblationExperiments</title>
<path fill="none" stroke="black" d="M106,-670.7C106,-662.98 106,-653.71 106,-645.11"/>
<polygon fill="black" stroke="black" points="109.5,-645.1 106,-635.1 102.5,-645.1 109.5,-645.1"/>
</g>
<!-- StableDiffusion3LoRA -->
<g id="node15" class="node">
<title>StableDiffusion3LoRA</title>
<path fill="#d5e8d4" stroke="#82b366" d="M192,-491C192,-491 90,-491 90,-491 84,-491 78,-485 78,-479 78,-479 78,-467 78,-467 78,-461 84,-455 90,-455 90,-455 192,-455 192,-455 198,-455 204,-461 204,-467 204,-467 204,-479 204,-479 204,-485 198,-491 192,-491"/>
<text text-anchor="middle" x="141" y="-470.5" font-family="Sans-Serif" font-size="10.00">Stable Diffusion 3 + LoRA</text>
</g>
<!-- PretrainedModel&#45;&gt;StableDiffusion3LoRA -->
<g id="edge17" class="edge">
<title>PretrainedModel&#45;&gt;StableDiffusion3LoRA</title>
<path fill="none" stroke="black" d="M143.42,-670.77C158.09,-662.11 173.62,-650.19 183,-635 208.32,-593.98 211.24,-571.62 193,-527 188.51,-516.02 180.53,-506.08 172.15,-497.86"/>
<polygon fill="black" stroke="black" points="174.49,-495.26 164.75,-491.09 169.76,-500.42 174.49,-495.26"/>
</g>
<!-- PretrainedModel&#45;&gt;ImageGeneration -->
<g id="edge22" class="edge">
<title>PretrainedModel&#45;&gt;ImageGeneration</title>
<path fill="none" stroke="black" d="M71.43,-670.85C56.55,-661.95 40.07,-649.82 29,-635 4.11,-601.67 0,-587.6 0,-546 0,-546 0,-546 0,-400 0,-285.97 170.76,-259.08 260.83,-252.83"/>
<polygon fill="black" stroke="black" points="261.11,-256.32 270.87,-252.2 260.67,-249.33 261.11,-256.32"/>
</g>
<!-- TransformerBlocksToFineTune -->
<g id="node14" class="node">
<title>TransformerBlocksToFineTune</title>
<path fill="#d5e8d4" stroke="#82b366" d="M172,-563C172,-563 40,-563 40,-563 34,-563 28,-557 28,-551 28,-551 28,-539 28,-539 28,-533 34,-527 40,-527 40,-527 172,-527 172,-527 178,-527 184,-533 184,-539 184,-539 184,-551 184,-551 184,-557 178,-563 172,-563"/>
<text text-anchor="middle" x="106" y="-542.5" font-family="Sans-Serif" font-size="10.00">Transformer Blocks to Fine&#45;Tune</text>
</g>
<!-- MeanAblationExperiments&#45;&gt;TransformerBlocksToFineTune -->
<g id="edge16" class="edge">
<title>MeanAblationExperiments&#45;&gt;TransformerBlocksToFineTune</title>
<path fill="none" stroke="black" d="M106,-598.7C106,-590.98 106,-581.71 106,-573.11"/>
<polygon fill="black" stroke="black" points="109.5,-573.1 106,-563.1 102.5,-573.1 109.5,-573.1"/>
</g>
<!-- TransformerBlocksToFineTune&#45;&gt;StableDiffusion3LoRA -->
<g id="edge18" class="edge">
<title>TransformerBlocksToFineTune&#45;&gt;StableDiffusion3LoRA</title>
<path fill="none" stroke="black" d="M114.65,-526.7C118.64,-518.73 123.45,-509.1 127.87,-500.26"/>
<polygon fill="black" stroke="black" points="131.11,-501.61 132.45,-491.1 124.85,-498.48 131.11,-501.61"/>
</g>
<!-- StableDiffusion3LoRA&#45;&gt;FineTune -->
<g id="edge20" class="edge">
<title>StableDiffusion3LoRA&#45;&gt;FineTune</title>
<path fill="none" stroke="black" d="M145.94,-454.7C148.17,-446.9 150.85,-437.51 153.33,-428.83"/>
<polygon fill="black" stroke="black" points="156.73,-429.68 156.11,-419.1 150,-427.76 156.73,-429.68"/>
</g>
<!-- FineTunedModel -->
<g id="node17" class="node">
<title>FineTunedModel</title>
<path fill="#d5e8d4" stroke="#82b366" d="M191.5,-347C191.5,-347 130.5,-347 130.5,-347 124.5,-347 118.5,-341 118.5,-335 118.5,-335 118.5,-323 118.5,-323 118.5,-317 124.5,-311 130.5,-311 130.5,-311 191.5,-311 191.5,-311 197.5,-311 203.5,-317 203.5,-323 203.5,-323 203.5,-335 203.5,-335 203.5,-341 197.5,-347 191.5,-347"/>
<text text-anchor="middle" x="161" y="-326.5" font-family="Sans-Serif" font-size="10.00">Fine&#45;tuned Model</text>
</g>
<!-- FineTune&#45;&gt;FineTunedModel -->
<g id="edge21" class="edge">
<title>FineTune&#45;&gt;FineTunedModel</title>
<path fill="none" stroke="black" d="M161,-382.7C161,-374.98 161,-365.71 161,-357.11"/>
<polygon fill="black" stroke="black" points="164.5,-357.1 161,-347.1 157.5,-357.1 164.5,-357.1"/>
</g>
<!-- FineTunedModel&#45;&gt;ImageGeneration -->
<g id="edge23" class="edge">
<title>FineTunedModel&#45;&gt;ImageGeneration</title>
<path fill="none" stroke="black" d="M195.18,-310.91C217.81,-299.6 247.67,-284.66 271.92,-272.54"/>
<polygon fill="black" stroke="black" points="273.54,-275.64 280.92,-268.04 270.41,-269.38 273.54,-275.64"/>
</g>
<!-- ImageGeneration&#45;&gt;CompareImages -->
<g id="edge26" class="edge">
<title>ImageGeneration&#45;&gt;CompareImages</title>
<path fill="none" stroke="black" d="M342.89,-231.88C360.51,-221.05 383.22,-207.11 400.88,-196.26"/>
<polygon fill="black" stroke="black" points="402.92,-199.12 409.61,-190.9 399.26,-193.15 402.92,-199.12"/>
</g>
<!-- AttentionComponents -->
<g id="node21" class="node">
<title>AttentionComponents</title>
<path fill="#dae8fc" stroke="#6c8ebf" d="M358,-196C358,-196 272,-196 272,-196 266,-196 260,-190 260,-184 260,-184 260,-172 260,-172 260,-166 266,-160 272,-160 272,-160 358,-160 358,-160 364,-160 370,-166 370,-172 370,-172 370,-184 370,-184 370,-190 364,-196 358,-196"/>
<text text-anchor="middle" x="315" y="-175.5" font-family="Sans-Serif" font-size="10.00">Attention Components</text>
</g>
<!-- ImageGeneration&#45;&gt;AttentionComponents -->
<g id="edge28" class="edge">
<title>ImageGeneration&#45;&gt;AttentionComponents</title>
<path fill="none" stroke="black" d="M315,-231.7C315,-223.98 315,-214.71 315,-206.11"/>
<polygon fill="black" stroke="black" points="318.5,-206.1 315,-196.1 311.5,-206.1 318.5,-206.1"/>
</g>
<!-- FIDScores -->
<g id="node20" class="node">
<title>FIDScores</title>
<path fill="#dae8fc" stroke="#6c8ebf" d="M444,-124C444,-124 414,-124 414,-124 408,-124 402,-118 402,-112 402,-112 402,-100 402,-100 402,-94 408,-88 414,-88 414,-88 444,-88 444,-88 450,-88 456,-94 456,-100 456,-100 456,-112 456,-112 456,-118 450,-124 444,-124"/>
<text text-anchor="middle" x="429" y="-103.5" font-family="Sans-Serif" font-size="10.00">FID Scores</text>
</g>
<!-- CompareImages&#45;&gt;FIDScores -->
<g id="edge27" class="edge">
<title>CompareImages&#45;&gt;FIDScores</title>
<path fill="none" stroke="black" d="M429,-159.7C429,-151.98 429,-142.71 429,-134.11"/>
<polygon fill="black" stroke="black" points="432.5,-134.1 429,-124.1 425.5,-134.1 432.5,-134.1"/>
</g>
<!-- TokenAffinityVisualizations -->
<g id="node22" class="node">
<title>TokenAffinityVisualizations</title>
<path fill="#dae8fc" stroke="#6c8ebf" d="M372,-124C372,-124 258,-124 258,-124 252,-124 246,-118 246,-112 246,-112 246,-100 246,-100 246,-94 252,-88 258,-88 258,-88 372,-88 372,-88 378,-88 384,-94 384,-100 384,-100 384,-112 384,-112 384,-118 378,-124 372,-124"/>
<text text-anchor="middle" x="315" y="-103.5" font-family="Sans-Serif" font-size="10.00">Token Affinity Visualizations</text>
</g>
<!-- AttentionComponents&#45;&gt;TokenAffinityVisualizations -->
<g id="edge29" class="edge">
<title>AttentionComponents&#45;&gt;TokenAffinityVisualizations</title>
<path fill="none" stroke="black" d="M315,-159.7C315,-151.98 315,-142.71 315,-134.11"/>
<polygon fill="black" stroke="black" points="318.5,-134.1 315,-124.1 311.5,-134.1 318.5,-134.1"/>
</g>
<!-- Heatmap -->
<g id="node23" class="node">
<title>Heatmap</title>
<path fill="#dae8fc" stroke="#6c8ebf" d="M309,-52C309,-52 279,-52 279,-52 273,-52 267,-46 267,-40 267,-40 267,-28 267,-28 267,-22 273,-16 279,-16 279,-16 309,-16 309,-16 315,-16 321,-22 321,-28 321,-28 321,-40 321,-40 321,-46 315,-52 309,-52"/>
<text text-anchor="middle" x="294" y="-31.5" font-family="Sans-Serif" font-size="10.00">Heatmap</text>
</g>
<!-- TokenAffinityVisualizations&#45;&gt;Heatmap -->
<g id="edge30" class="edge">
<title>TokenAffinityVisualizations&#45;&gt;Heatmap</title>
<path fill="none" stroke="black" d="M309.81,-87.7C307.47,-79.9 304.65,-70.51 302.05,-61.83"/>
<polygon fill="black" stroke="black" points="305.36,-60.68 299.13,-52.1 298.65,-62.69 305.36,-60.68"/>
</g>
<!-- NCUT -->
<g id="node24" class="node">
<title>NCUT</title>
<path fill="#dae8fc" stroke="#6c8ebf" d="M381,-52C381,-52 351,-52 351,-52 345,-52 339,-46 339,-40 339,-40 339,-28 339,-28 339,-22 345,-16 351,-16 351,-16 381,-16 381,-16 387,-16 393,-22 393,-28 393,-28 393,-40 393,-40 393,-46 387,-52 381,-52"/>
<text text-anchor="middle" x="366" y="-31.5" font-family="Sans-Serif" font-size="10.00">NCUT</text>
</g>
<!-- TokenAffinityVisualizations&#45;&gt;NCUT -->
<g id="edge31" class="edge">
<title>TokenAffinityVisualizations&#45;&gt;NCUT</title>
<path fill="none" stroke="black" d="M327.61,-87.7C333.6,-79.47 340.88,-69.48 347.48,-60.42"/>
<polygon fill="black" stroke="black" points="350.48,-62.25 353.54,-52.1 344.82,-58.13 350.48,-62.25"/>
</g>
</g>
</svg>
